<?xml version="1.0" encoding="UTF-8" standalone="no"?>
<!-- Created with Inkscape (http://www.inkscape.org/) -->

<svg
   version="1.1"
   id="svg90"
   width="708.14575"
   height="163.58687"
   viewBox="0 0 3540.7287 817.9343"
   xmlns="http://www.w3.org/2000/svg"
   xmlns:svg="http://www.w3.org/2000/svg">
  <defs
     id="defs94" />
  <g
     id="g96"
     transform="translate(245.12764,-23.621349)">
    <path
       style="fill:#ffffff;fill-opacity:1;stroke:#06060a;stroke-width:36.7395;stroke-dasharray:none;stroke-opacity:1;paint-order:stroke fill markers"
       d="m 1000.8806,509.24763 c -0.8111,0.33482 -27.75335,0.45988 -59.87174,0.27791 -58.39706,-0.33085 -58.39706,-0.33085 -58.98693,-58.17359 -0.58987,-57.84272 -0.58987,-57.84272 -3.87444,-64.56029 -13.41582,-27.43792 -47.3798,-33.32227 -66.40614,-11.50503 -10.74749,12.32399 -11.74585,16.34179 -14.03879,56.49776 -2.52048,44.14071 -3.9919,53.25698 -11.93666,73.95457 -44.18189,115.10199 -198.05076,110.85092 -240.09681,-6.63336 -8.9305,-24.95346 -8.44826,-16.16656 -9.21399,-167.88854 -0.68651,-136.02575 -0.68651,-136.02575 -4.1456,-143.387 -15.43508,-32.84722 -59.30811,-33.14613 -74.14012,-0.50511 -5.59467,12.31229 -5.55406,10.44886 -5.56346,255.27942 -0.009,250.65087 0.18541,242.27887 -6.12661,263.00133 -35.83182,117.63644 -181.516,132.8084 -238.60946,24.84947 -17.83446,-33.72344 -17.37599,-28.1578 -18.22581,-221.26048 -0.72171,-163.99367 -0.72171,-163.99367 -3.63185,-170.35002 -14.25794,-31.14221 -57.06753,-35.01815 -72.53705,-6.56742 -8.32385,15.30877 -13.33938,65.23833 -13.844782,137.82467 -0.365116,52.4386 -0.365116,52.4386 -163.478363,52.43984 -163.113255,9.9e-4 -163.113255,9.9e-4 -162.803955,-47.35351 0.30929,-47.35476 0.30929,-47.35476 118.98929,-47.67863 118.680017,-0.32387 118.680017,-0.32387 119.480753,-19.06903 3.431612,-80.33393 16.887878,-120.69037 52.241913,-156.67782 66.315374,-67.50347 178.810564,-33.7875 207.841244,62.29217 7.04279,23.3088 6.52874,9.65103 7.2253,191.96157 0.63874,167.17184 0.63874,167.17184 3.77732,174.38646 14.61367,33.59232 55.58789,36.78561 73.7697,5.74917 7.02901,-11.99856 6.57216,5.93943 6.3361,-248.78414 -0.24766,-267.24544 -0.64455,-257.00874 11.09923,-286.27592 48.74756,-121.485838 212.19359,-109.1474 246.55118,18.61199 5.64867,21.00469 5.64892,21.01126 5.4817,151.97848 -0.16485,129.11923 0.037,135.06986 4.97429,146.69119 13.77865,32.43157 58.17539,33.28185 73.70747,1.41161 3.07129,-6.30194 3.10467,-6.67193 3.90095,-43.22314 1.19078,-54.66028 6.3612,-75.21355 26.10475,-103.77073 74.34698,-107.53579 226.73092,-56.23822 237.45239,79.93445 0.82581,10.48797 0.82581,10.48797 15.44974,10.48797 14.62394,0 14.62394,0 14.62394,47.71246 0,36.9978 -0.3312,47.84919 -1.4747,48.32127 z"
       id="path258" />
    <g
       aria-label="LLIF"
       id="text17379"
       style="font-weight:bold;font-size:900px;font-family:'Apple SD Gothic Neo';-inkscape-font-specification:'Apple SD Gothic Neo, Bold';fill:#ffffff;stroke:#000000;stroke-width:25.99928686;stroke-opacity:0;paint-order:stroke fill markers;stroke-dasharray:none"
       transform="matrix(1.1797388,0,0,1.2712687,134.5204,-227.53661)">
      <path
         d="m 1076.1778,827.96481 h 371.7 v -87.3 h -261 v -530.1 h -110.7 z"
         id="path26207"
         style="fill:#ffffff;stroke-width:25.99928686;stroke-dasharray:none;stroke:#05060b;stroke-opacity:1" />
      <path
         d="m 1550.4764,827.96481 h 371.7 v -87.3 h -261 v -530.1 h -110.7 z"
         id="path26209"
         style="fill:#ffffff;stroke-width:25.99928686;stroke-dasharray:none;stroke:#05060b;stroke-opacity:1" />
      <path
         d="m 2027.4751,827.96481 h 111.6 v -617.4 h -111.6 z"
         id="path26211"
         style="fill:#ffffff;stroke-width:25.99928686;stroke-dasharray:none;stroke:#05060b;stroke-opacity:1" />
      <path
         d="m 2287.575,827.96481 h 110.7 v -260.1 h 208.8 v -85.5 h -208.8 v -184.5 h 268.2 v -87.3 h -378.9 z"
         id="path26213"
         style="fill:#ffffff;stroke-width:25.99928686;stroke-dasharray:none;stroke:#05060b;stroke-opacity:1" />
    </g>
  </g>
</svg>
