<?xml version="1.0" encoding="UTF-8" standalone="no"?>
<!-- Created with Inkscape (http://www.inkscape.org/) -->

<svg
   version="1.1"
   id="svg90"
   width="708.14575"
   height="163.58687"
   viewBox="0 0 3540.7287 817.9343"
   xmlns="http://www.w3.org/2000/svg"
   xmlns:svg="http://www.w3.org/2000/svg">
  <defs
     id="defs94" />
  <g
     id="g96"
     transform="translate(245.12764,-23.621349)">
    <path
       style="fill:#ffffff;fill-opacity:1;stroke:#070709;stroke-width:36.7395;stroke-dasharray:none;stroke-opacity:1;paint-order:stroke fill markers"
       d="M 1000.8806,509.24763 C 1000.0695,509.58245 973.12725,509.70751 941.00886,509.52554 C 882.6118,509.19469 882.6118,509.19469 882.02193,451.35195 C 881.43206,393.50923 881.43206,393.50923 878.14749,386.79166 C 864.73167,359.35374 830.76769,353.46939 811.74135,375.28663 C 800.99386,387.61062 799.9955,391.62842 797.70256,431.78439 C 795.18208,475.9251 793.71066,485.04137 785.7659,505.73896 C 741.58401,620.84095 587.71514,616.58988 545.66909,499.1056 C 536.73859,474.15214 537.22083,482.93904 536.4551,331.21706 C 535.76859,195.19131 535.76859,195.19131 532.3095,187.83006 C 516.87442,154.98284 473.00139,154.68393 458.16938,187.32495 C 452.57471,199.63724 452.61532,197.77381 452.60592,442.60437 C 452.59692,693.25524 452.79133,684.88324 446.47931,705.6057 C 410.64749,823.24214 264.96331,838.4141 207.86985,730.45517 C 190.03539,696.73173 190.49386,702.29737 189.64404,509.19469 C 188.92233,345.20102 188.92233,345.20102 186.01219,338.84467 C 171.75425,307.70246 128.94466,303.82652 113.47514,332.27725 C 105.15129,347.58602 100.13576,397.51558 99.630358,470.10192 C 99.265242,522.54052 99.265242,522.54052 -63.848005,522.54176 C -226.96126,522.54275 -226.96126,522.54275 -226.65196,475.18825 C -226.34267,427.83349 -226.34267,427.83349 -107.66267,427.50962 C 11.017347,427.18575 11.017347,427.18575 11.818083,408.44059 C 15.249695,328.10666 28.705961,287.75022 64.059996,251.76277 C 130.37537,184.2593 242.87056,217.97527 271.90124,314.05494 C 278.94403,337.36374 278.42998,323.70597 279.12654,506.01651 C 279.76528,673.18835 279.76528,673.18835 282.90386,680.40297 C 297.51753,713.99529 338.49175,717.18858 356.67356,686.15214 C 363.70257,674.15358 363.24572,692.09157 363.00966,437.368 C 362.762,170.12256 362.36511,180.35926 374.10889,151.09208 C 422.85645,29.606242 586.30248,41.94468 620.66007,169.70407 C 626.30874,190.70876 626.30899,190.71533 626.14177,321.68255 C 625.97692,450.80178 626.17877,456.75241 631.11606,468.37374 C 644.89471,500.80531 689.29145,501.65559 704.82353,469.78535 C 707.89482,463.48341 707.9282,463.11342 708.72448,426.56221 C 709.91526,371.90193 715.08568,351.34866 734.82923,322.79148 C 809.17621,215.25569 961.56015,266.55326 972.28162,402.72593 C 973.10743,413.2139 973.10743,413.2139 987.73136,413.2139 C 1002.3553,413.2139 1002.3553,413.2139 1002.3553,460.92636 C 1002.3553,497.92416 1002.0241,508.77555 1000.8806,509.24763 Z"
       id="path258" />
    <g
       aria-label="LLIF"
       id="text17379"
       style="font-weight:bold;font-size:900px;font-family:'Apple SD Gothic Neo';-inkscape-font-specification:'Apple SD Gothic Neo, Bold';fill:#000000;stroke:#000000;stroke-width:26;stroke-opacity:0;paint-order:stroke fill markers"
       transform="matrix(1.1797388,0,0,1.2712687,134.5204,-227.53661)">
      <path
         d="M 1076.1778,827.96481 H 1447.8778 V 740.66481 H 1186.8778 V 210.56481 H 1076.1778 Z"
         id="path26207"
         style="fill:#000000" />
      <path
         d="M 1550.4764,827.96481 H 1922.1764 V 740.66481 H 1661.1764 V 210.56481 H 1550.4764 Z"
         id="path26209"
         style="fill:#000000" />
      <path
         d="M 2027.4751,827.96481 H 2139.0751 V 210.56481 H 2027.4751 Z"
         id="path26211"
         style="fill:#000000" />
      <path
         d="M 2287.575,827.96481 H 2398.275 V 567.86481 H 2607.075 V 482.36481 H 2398.275 V 297.86481 H 2666.475 V 210.56481 H 2287.575 Z"
         id="path26213"
         style="fill:#000000" />
    </g>
  </g>
</svg>
